<svg width="120" height="32" viewBox="0 0 120 32" fill="none" xmlns="http://www.w3.org/2000/svg">
<path d="M19.137 13.5644L18.9715 15.7663H16.8248V23.1418H13.9994V15.7663H12.5688V13.5644H13.9994V11.9133V11.4364C13.9994 11.4364 13.8983 8.99899 16.8248 8.86723C18.2469 8.80365 19.4315 9.12423 19.4315 9.12423L19.1309 11.289C19.1309 11.289 16.8248 10.5743 16.8248 11.9673V13.564H19.137V13.5644Z" fill="#AEC5CE"/>
<path d="M15.9996 32C7.17788 32 0 24.8221 0 15.9996C0 7.17712 7.17788 0 15.9996 0C24.8221 0 32 7.17712 32 15.9996C32 24.8221 24.8221 32 15.9996 32ZM15.9996 2.19806C8.38932 2.19806 2.19806 8.38932 2.19806 15.9996C2.19806 23.6099 8.38932 29.8016 15.9996 29.8016C23.6107 29.8016 29.8016 23.6099 29.8016 15.9996C29.8016 8.38932 23.6107 2.19806 15.9996 2.19806Z" fill="#AEC5CE"/>
<path d="M49.92 12.136H45.056V15.24H49.264L49.072 16.744H45.056V21H43.232V10.632H49.92V12.136ZM55.5384 10.632L59.3624 20.888V21H57.4424L56.4664 18.248H52.3064L51.3464 21H49.4744V20.888L53.2824 10.632H55.5384ZM52.8184 16.776H55.9384L54.3704 12.328L52.8184 16.776ZM64.677 21.208C63.557 21.208 62.6343 20.9893 61.909 20.552C61.1837 20.104 60.6503 19.48 60.309 18.68C59.9677 17.88 59.797 16.9413 59.797 15.864C59.797 14.584 60.0157 13.5387 60.453 12.728C60.901 11.9173 61.4877 11.3307 62.213 10.968C62.9383 10.6053 63.7437 10.424 64.629 10.424C65.2797 10.424 65.877 10.504 66.421 10.664C66.9757 10.824 67.5143 11.0587 68.037 11.368L67.301 12.728C66.469 12.2267 65.6103 11.976 64.725 11.976C63.6903 11.976 62.9277 12.312 62.437 12.984C61.957 13.6453 61.717 14.5733 61.717 15.768C61.717 16.9947 61.9837 17.9493 62.517 18.632C63.0503 19.304 63.8183 19.64 64.821 19.64C65.333 19.64 65.7863 19.576 66.181 19.448C66.5757 19.3093 66.981 19.1173 67.397 18.872L68.117 20.184C67.541 20.5253 66.981 20.7813 66.437 20.952C65.9037 21.1227 65.317 21.208 64.677 21.208ZM71.3841 19.48H76.3281V21H69.5601V10.632H76.2481V12.136H71.3841V14.984H75.6081L75.4001 16.456H71.3841V19.48ZM83.9421 15.544C84.4221 15.6613 84.8168 15.8533 85.1261 16.12C85.4461 16.376 85.6755 16.6693 85.8141 17C85.9635 17.3307 86.0381 17.6773 86.0381 18.04C86.0381 18.6373 85.8888 19.16 85.5901 19.608C85.3021 20.0453 84.8701 20.3867 84.2941 20.632C83.7181 20.8773 83.0195 21 82.1981 21H78.3101V10.632H82.0061C82.7741 10.632 83.4301 10.7493 83.9741 10.984C84.5181 11.208 84.9288 11.5227 85.2061 11.928C85.4941 12.3333 85.6381 12.8027 85.6381 13.336C85.6381 13.8267 85.4995 14.2693 85.2221 14.664C84.9448 15.048 84.5181 15.3413 83.9421 15.544ZM80.1341 12.104V14.984H81.7821C82.3795 14.984 82.8595 14.8667 83.2221 14.632C83.5955 14.3973 83.7821 14.0133 83.7821 13.48C83.7821 13.064 83.6275 12.7333 83.3181 12.488C83.0088 12.232 82.5715 12.104 82.0061 12.104H80.1341ZM82.1341 19.512C82.8488 19.512 83.3608 19.368 83.6701 19.08C83.9901 18.792 84.1501 18.424 84.1501 17.976C84.1501 17.496 83.9848 17.1173 83.6541 16.84C83.3235 16.552 82.8275 16.408 82.1661 16.408H80.1341V19.512H82.1341ZM92.3511 21.208C91.2845 21.208 90.3778 20.984 89.6311 20.536C88.8845 20.0773 88.3191 19.4427 87.9351 18.632C87.5618 17.8107 87.3751 16.8613 87.3751 15.784C87.3751 14.5893 87.6045 13.592 88.0631 12.792C88.5218 11.9813 89.1351 11.384 89.9031 11C90.6711 10.616 91.5245 10.424 92.4631 10.424C93.5298 10.424 94.4365 10.6533 95.1831 11.112C95.9298 11.56 96.4898 12.1947 96.8631 13.016C97.2365 13.8267 97.4231 14.7707 97.4231 15.848C97.4231 17.0427 97.1938 18.0453 96.7351 18.856C96.2765 19.656 95.6631 20.248 94.8951 20.632C94.1378 21.016 93.2898 21.208 92.3511 21.208ZM92.3511 19.688C93.0445 19.688 93.6311 19.528 94.1111 19.208C94.5911 18.888 94.9485 18.4453 95.1831 17.88C95.4178 17.304 95.5351 16.632 95.5351 15.864C95.5351 15.0747 95.4231 14.3867 95.1991 13.8C94.9751 13.2133 94.6338 12.76 94.1751 12.44C93.7165 12.1093 93.1458 11.944 92.4631 11.944C91.7591 11.944 91.1671 12.104 90.6871 12.424C90.2071 12.744 89.8498 13.192 89.6151 13.768C89.3805 14.3333 89.2631 15 89.2631 15.768C89.2631 16.9733 89.5245 17.928 90.0471 18.632C90.5698 19.336 91.3378 19.688 92.3511 19.688ZM103.742 21.208C102.675 21.208 101.768 20.984 101.022 20.536C100.275 20.0773 99.7098 19.4427 99.3258 18.632C98.9524 17.8107 98.7658 16.8613 98.7658 15.784C98.7658 14.5893 98.9951 13.592 99.4538 12.792C99.9124 11.9813 100.526 11.384 101.294 11C102.062 10.616 102.915 10.424 103.854 10.424C104.92 10.424 105.827 10.6533 106.574 11.112C107.32 11.56 107.88 12.1947 108.254 13.016C108.627 13.8267 108.814 14.7707 108.814 15.848C108.814 17.0427 108.584 18.0453 108.126 18.856C107.667 19.656 107.054 20.248 106.286 20.632C105.528 21.016 104.68 21.208 103.742 21.208ZM103.742 19.688C104.435 19.688 105.022 19.528 105.502 19.208C105.982 18.888 106.339 18.4453 106.574 17.88C106.808 17.304 106.926 16.632 106.926 15.864C106.926 15.0747 106.814 14.3867 106.59 13.8C106.366 13.2133 106.024 12.76 105.566 12.44C105.107 12.1093 104.536 11.944 103.854 11.944C103.15 11.944 102.558 12.104 102.078 12.424C101.598 12.744 101.24 13.192 101.006 13.768C100.771 14.3333 100.654 15 100.654 15.768C100.654 16.9733 100.915 17.928 101.438 18.632C101.96 19.336 102.728 19.688 103.742 19.688ZM114.588 15.56L119.18 20.888V21H116.956L112.54 15.768V21H110.716V10.632H112.54V15.512L116.908 10.632H118.972V10.744L114.588 15.56Z" fill="#AEC5CE"/>
</svg>
