<svg width="129" height="32" viewBox="0 0 129 32" fill="none" xmlns="http://www.w3.org/2000/svg">
<path d="M23.4491 11.1952C23.2622 10.7138 23.0105 10.3043 22.6038 9.89644C22.1955 9.48931 21.7869 9.23768 21.3043 9.05039C20.8374 8.86999 20.3042 8.74552 19.5241 8.71028C18.7423 8.67389 18.4919 8.66623 16.5002 8.66623C14.5086 8.66623 14.2578 8.67428 13.476 8.71028C12.6959 8.74552 12.1631 8.86999 11.6966 9.05039C11.2133 9.23768 10.805 9.48931 10.3963 9.89644C9.98917 10.304 9.73869 10.7138 9.55178 11.1952C9.37062 11.6621 9.24576 12.1956 9.21052 12.9758C9.17452 13.7579 9.16571 14.0076 9.16571 15.9996C9.16571 17.9916 9.17452 18.2413 9.21052 19.0234C9.24576 19.8048 9.37062 20.3375 9.55178 20.8036C9.73869 21.2862 9.98956 21.6957 10.3963 22.1028C10.8046 22.5107 11.2133 22.7619 11.6966 22.9496C12.1635 23.13 12.6959 23.2545 13.476 23.2905C14.2578 23.3253 14.509 23.3345 16.5002 23.3345C18.4915 23.3345 18.7423 23.3253 19.5241 23.2905C20.3042 23.2545 20.8378 23.13 21.3043 22.9496C21.7869 22.7619 22.1951 22.5107 22.6038 22.1028C23.0109 21.6957 23.2622 21.2862 23.4491 20.8036C23.6318 20.3371 23.7536 19.8048 23.7896 19.0234C23.8263 18.2413 23.8344 17.9916 23.8344 15.9996C23.8344 14.0076 23.8263 13.7579 23.7896 12.9758C23.7536 12.1956 23.6314 11.6621 23.4491 11.1952ZM22.4705 18.9637C22.4376 19.678 22.3181 20.0667 22.217 20.3256C22.0844 20.6681 21.9259 20.9116 21.6685 21.1679C21.4111 21.4249 21.1679 21.5838 20.8255 21.7179C20.5658 21.8182 20.179 21.9366 19.4639 21.9695C18.6903 22.0055 18.4585 22.0124 16.5002 22.0124C14.5412 22.0124 14.3091 22.0051 13.5366 21.9695C12.8207 21.9366 12.4339 21.8178 12.1742 21.7179C11.8322 21.5838 11.5886 21.4249 11.332 21.1679C11.0754 20.9116 10.916 20.6677 10.7828 20.3256C10.6832 20.0667 10.5637 19.6784 10.53 18.9637C10.4947 18.1896 10.4882 17.9583 10.4882 15.9996C10.4882 14.0417 10.4951 13.8096 10.53 13.0371C10.5637 12.322 10.6832 11.9333 10.7828 11.6747C10.916 11.3327 11.0746 11.0876 11.332 10.8317C11.5886 10.5751 11.8326 10.4154 12.1742 10.2829C12.4339 10.1818 12.8207 10.0627 13.5366 10.0301C14.3102 9.99526 14.5412 9.9876 16.5002 9.9876C18.4585 9.9876 18.6906 9.99564 19.4639 10.0301C20.179 10.0627 20.5658 10.1818 20.8255 10.2829C21.1683 10.4154 21.4111 10.5751 21.6685 10.8317C21.9259 11.0876 22.0844 11.3331 22.217 11.6747C22.3181 11.9333 22.4376 12.3216 22.4705 13.0371C22.505 13.81 22.5123 14.0417 22.5123 15.9996C22.5123 17.9583 22.505 18.1896 22.4705 18.9637ZM16.5002 12.2347C14.419 12.2347 12.7338 13.9191 12.7338 15.9996C12.7338 18.0801 14.419 19.7661 16.5002 19.7661C18.5807 19.7661 20.2659 18.0801 20.2659 15.9996C20.2659 13.9191 18.5807 12.2347 16.5002 12.2347ZM16.5002 18.4451C15.1494 18.4451 14.0555 17.3501 14.0555 15.9996C14.0555 14.6499 15.149 13.5549 16.5002 13.5549C17.8503 13.5549 18.9442 14.6495 18.9442 15.9996C18.9442 17.3497 17.8503 18.4451 16.5002 18.4451ZM21.2955 12.0857C21.2955 12.571 20.9013 12.9658 20.4149 12.9658C19.9285 12.9658 19.5352 12.571 19.5352 12.0857C19.5352 11.5989 19.9285 11.2044 20.4149 11.2044C20.9013 11.2044 21.2955 11.5993 21.2955 12.0857ZM16.4995 0C7.67698 0 0.500244 7.17712 0.500244 15.9996C0.500244 24.8221 7.67698 32 16.4995 32C25.3227 32 32.5002 24.8221 32.5002 15.9996C32.5002 7.17712 25.3227 0 16.4995 0ZM16.4995 29.8016C8.88957 29.8016 2.69869 23.6099 2.69869 15.9996C2.69869 8.38932 8.88957 2.19806 16.4995 2.19806C24.1102 2.19806 30.3018 8.38932 30.3018 15.9996C30.3018 23.6099 24.1102 29.8016 16.4995 29.8016Z" fill="#AEC5CE"/>
<path d="M43.7322 21V10.632H45.5562V21H43.7322ZM56.8451 10.632V21H54.8451L50.8611 15.112C50.8078 15.0267 50.7011 14.872 50.5411 14.648C50.3918 14.4133 50.2531 14.1947 50.1251 13.992C50.0078 13.7787 49.9011 13.5653 49.8051 13.352V21H48.0291V10.632H49.9811L54.1571 16.808C54.2105 16.8827 54.3065 17.0267 54.4451 17.24C54.5838 17.4427 54.7065 17.6347 54.8131 17.816C54.9198 17.9867 55.0105 18.1573 55.0851 18.328V10.632H56.8451ZM62.3664 21.208C61.577 21.208 60.857 21.1013 60.2064 20.888C59.5557 20.6747 58.9797 20.376 58.4784 19.992L59.3264 18.712C59.7957 19.0427 60.2864 19.288 60.7984 19.448C61.3104 19.5973 61.801 19.672 62.2704 19.672C62.9744 19.672 63.513 19.5547 63.8864 19.32C64.2597 19.0747 64.4464 18.712 64.4464 18.232C64.4464 17.944 64.3824 17.704 64.2544 17.512C64.1264 17.32 63.9077 17.144 63.5984 16.984C63.289 16.824 62.841 16.6373 62.2544 16.424L61.9504 16.312C61.2677 16.056 60.7184 15.8107 60.3024 15.576C59.897 15.3413 59.5664 15.0373 59.3104 14.664C59.0544 14.28 58.9264 13.8 58.9264 13.224C58.9264 12.6053 59.097 12.088 59.4384 11.672C59.7904 11.2453 60.2437 10.9307 60.7984 10.728C61.353 10.5253 61.945 10.424 62.5744 10.424C63.8757 10.424 65.065 10.7867 66.1424 11.512L65.3104 12.792C64.8304 12.4933 64.377 12.2747 63.9504 12.136C63.5344 11.9973 63.0704 11.928 62.5584 11.928C62.0144 11.928 61.5824 12.0347 61.2624 12.248C60.9424 12.4507 60.7824 12.7547 60.7824 13.16C60.7824 13.384 60.841 13.5813 60.9584 13.752C61.0757 13.912 61.2784 14.072 61.5664 14.232C61.8544 14.392 62.265 14.568 62.7984 14.76L63.1184 14.872C63.8117 15.1173 64.3717 15.3573 64.7984 15.592C65.225 15.816 65.5877 16.136 65.8864 16.552C66.185 16.9573 66.3344 17.4853 66.3344 18.136C66.3344 18.7973 66.1637 19.3627 65.8224 19.832C65.4917 20.2907 65.0277 20.6373 64.4304 20.872C63.8437 21.096 63.1557 21.208 62.3664 21.208ZM75.7887 10.632V12.2H72.3647V21H70.5407V12.2H67.0687V10.632H75.7887ZM80.8511 10.632L84.6751 20.888V21H82.7551L81.7791 18.248H77.6191L76.6591 21H74.7871V20.888L78.5951 10.632H80.8511ZM78.1311 16.776H81.2511L79.6831 12.328L78.1311 16.776ZM93.8937 15.16V20.264C93.2217 20.5947 92.5924 20.8347 92.0057 20.984C91.4191 21.1333 90.7791 21.208 90.0857 21.208C88.9231 21.208 87.9737 20.9787 87.2377 20.52C86.5017 20.0613 85.9631 19.4373 85.6217 18.648C85.2804 17.848 85.1097 16.9147 85.1097 15.848C85.1097 14.6 85.3337 13.5707 85.7817 12.76C86.2404 11.9493 86.8484 11.3573 87.6057 10.984C88.3631 10.6107 89.2111 10.424 90.1497 10.424C91.4617 10.424 92.6244 10.744 93.6377 11.384L92.8697 12.728C92.0697 12.216 91.2057 11.96 90.2777 11.96C89.1577 11.96 88.3311 12.296 87.7977 12.968C87.2751 13.64 87.0137 14.5733 87.0137 15.768C87.0137 17.0373 87.2591 18.0027 87.7497 18.664C88.2511 19.3147 89.0564 19.64 90.1657 19.64C90.8164 19.64 91.4511 19.528 92.0697 19.304V16.664H89.6057L89.8137 15.16H93.8937ZM103.918 20.888V21H101.854L99.0542 17.08H97.8062V21H95.9822V10.632H99.4062C100.26 10.632 100.974 10.7653 101.55 11.032C102.137 11.2987 102.574 11.6667 102.862 12.136C103.161 12.6053 103.31 13.1493 103.31 13.768C103.31 14.504 103.108 15.1493 102.702 15.704C102.308 16.248 101.726 16.632 100.958 16.856L103.918 20.888ZM97.8062 15.64H99.1822C99.9076 15.64 100.462 15.4907 100.846 15.192C101.23 14.8827 101.422 14.4293 101.422 13.832C101.422 13.2773 101.246 12.856 100.894 12.568C100.553 12.28 100.052 12.136 99.3902 12.136H97.8062V15.64ZM110.492 10.632L114.316 20.888V21H112.396L111.42 18.248H107.26L106.3 21H104.428V20.888L108.236 10.632H110.492ZM107.772 16.776H110.892L109.324 12.328L107.772 16.776ZM126.627 10.632V21H124.835V13.72C124.653 14.2 124.435 14.6907 124.179 15.192L121.987 19.496H120.419L118.259 15.192C117.917 14.5307 117.683 14.0293 117.555 13.688V21H115.795V10.632H117.763L120.115 15.192C120.659 16.2693 121.027 17.096 121.219 17.672C121.421 17.0427 121.789 16.216 122.323 15.192L124.691 10.632H126.627Z" fill="#AEC5CE"/>
</svg>
