<svg width="111" height="32" viewBox="0 0 111 32" fill="none" xmlns="http://www.w3.org/2000/svg">
<path d="M15.9999 0C7.17752 0 0.000488281 7.17741 0.000488281 15.9994C0.000488281 24.8218 7.17752 32 15.9999 32C24.8223 32 32.0005 24.8218 32.0005 15.9994C32.0005 7.17741 24.8223 0 15.9999 0ZM15.9999 29.8016C8.38971 29.8016 2.19891 23.61 2.19891 15.9994C2.19891 8.38922 8.38971 2.19842 15.9999 2.19842C23.6105 2.19842 29.8021 8.38922 29.8021 15.9994C29.8021 23.61 23.6105 29.8016 15.9999 29.8016Z" fill="#AEC5CE"/>
<path d="M12.685 13.6455H10.1001V21.9608H12.685V13.6455Z" fill="#AEC5CE"/>
<path d="M11.4092 10.0396C10.5747 10.0396 10.032 10.601 10.032 11.3318C10.032 12.0465 10.559 12.6244 11.3755 12.6244C12.2423 12.6244 12.7697 12.0465 12.7697 11.3318C12.7524 10.6006 12.2423 10.0396 11.4092 10.0396Z" fill="#AEC5CE"/>
<path d="M18.9914 13.4575C17.5988 13.4575 16.7654 14.2568 16.4245 14.7999H16.3728L16.2537 13.6452H14.0105C14.0434 14.3924 14.0779 15.2607 14.0779 16.2978V21.9605H16.6628V17.165C16.6628 16.9271 16.6792 16.6889 16.7482 16.5185C16.9347 16.0428 17.3598 15.5495 18.0741 15.5495C19.0094 15.5495 19.3844 16.281 19.3844 17.3526V21.9605H21.9688V17.0466C21.9685 14.5973 20.6938 13.4575 18.9914 13.4575Z" fill="#AEC5CE"/>
<path d="M45.0565 19.416H49.9845V21H43.2325V10.632H45.0565V19.416ZM51.4669 21V10.632H53.2909V21H51.4669ZM64.5797 10.632V21H62.5797L58.5957 15.112C58.5424 15.0267 58.4357 14.872 58.2757 14.648C58.1264 14.4133 57.9877 14.1947 57.8597 13.992C57.7424 13.7787 57.6357 13.5653 57.5397 13.352V21H55.7637V10.632H57.7157L61.8917 16.808C61.9451 16.8827 62.0411 17.0267 62.1797 17.24C62.3184 17.4427 62.4411 17.6347 62.5477 17.816C62.6544 17.9867 62.7451 18.1573 62.8197 18.328V10.632H64.5797ZM70.917 15.56L75.509 20.888V21H73.285L68.869 15.768V21H67.045V10.632H68.869V15.512L73.237 10.632H75.301V10.744L70.917 15.56ZM78.7127 19.48H83.6567V21H76.8887V10.632H83.5767V12.136H78.7127V14.984H82.9367L82.7287 16.456H78.7127V19.48ZM88.9027 10.632C90.6841 10.632 92.0547 11.0373 93.0147 11.848C93.9747 12.648 94.4547 13.9707 94.4547 15.816C94.4547 16.9787 94.2041 17.9493 93.7027 18.728C93.2121 19.496 92.5347 20.0667 91.6707 20.44C90.8067 20.8133 89.8254 21 88.7267 21H85.6387V10.632H88.9027ZM88.4547 19.448C89.3614 19.448 90.1027 19.3467 90.6787 19.144C91.2654 18.9413 91.7134 18.5787 92.0227 18.056C92.3427 17.5227 92.5027 16.776 92.5027 15.816C92.5027 14.536 92.2094 13.6133 91.6227 13.048C91.0467 12.472 90.1507 12.184 88.9347 12.184H87.4627V19.448H88.4547ZM96.3419 21V10.632H98.1659V21H96.3419ZM109.455 10.632V21H107.455L103.471 15.112C103.417 15.0267 103.311 14.872 103.151 14.648C103.001 14.4133 102.863 14.1947 102.735 13.992C102.617 13.7787 102.511 13.5653 102.415 13.352V21H100.639V10.632H102.591L106.767 16.808C106.82 16.8827 106.916 17.0267 107.055 17.24C107.193 17.4427 107.316 17.6347 107.423 17.816C107.529 17.9867 107.62 18.1573 107.695 18.328V10.632H109.455Z" fill="#AEC5CE"/>
</svg>
