<svg width="68" height="69" viewBox="0 0 68 69" fill="none" xmlns="http://www.w3.org/2000/svg">
<rect x="1" y="1.5" width="66" height="66" rx="33" fill="#FEFEFE" stroke="#FFC600" stroke-width="2" stroke-dasharray="2 2"/>
<path d="M44.6665 36.0733V33.1667C44.6665 30.3377 43.5427 27.6246 41.5423 25.6242C39.5419 23.6238 36.8288 22.5 33.9998 22.5C31.1709 22.5 28.4578 23.6238 26.4574 25.6242C24.457 27.6246 23.3332 30.3377 23.3332 33.1667V36.0733C22.5551 36.3484 21.8812 36.8574 21.4038 37.5306C20.9263 38.2037 20.6688 39.0081 20.6665 39.8333V42.5C20.6665 43.5609 21.0879 44.5783 21.8381 45.3284C22.5882 46.0786 23.6056 46.5 24.6665 46.5H28.6665C29.0201 46.5 29.3593 46.3595 29.6093 46.1095C29.8594 45.8594 29.9998 45.5203 29.9998 45.1667V37.1667C29.9998 36.813 29.8594 36.4739 29.6093 36.2239C29.3593 35.9738 29.0201 35.8333 28.6665 35.8333H25.9998V33.1667C25.9998 31.0449 26.8427 29.0101 28.343 27.5098C29.8433 26.0095 31.8781 25.1667 33.9998 25.1667C36.1216 25.1667 38.1564 26.0095 39.6567 27.5098C41.157 29.0101 41.9998 31.0449 41.9998 33.1667V35.8333H39.3332C38.9795 35.8333 38.6404 35.9738 38.3904 36.2239C38.1403 36.4739 37.9998 36.813 37.9998 37.1667V45.1667C37.9998 45.5203 38.1403 45.8594 38.3904 46.1095C38.6404 46.3595 38.9795 46.5 39.3332 46.5H43.3332C44.394 46.5 45.4115 46.0786 46.1616 45.3284C46.9117 44.5783 47.3332 43.5609 47.3332 42.5V39.8333C47.3309 39.0081 47.0733 38.2037 46.5959 37.5306C46.1185 36.8574 45.4446 36.3484 44.6665 36.0733ZM27.3332 38.5V43.8333H24.6665C24.3129 43.8333 23.9737 43.6929 23.7237 43.4428C23.4736 43.1928 23.3332 42.8536 23.3332 42.5V39.8333C23.3332 39.4797 23.4736 39.1406 23.7237 38.8905C23.9737 38.6405 24.3129 38.5 24.6665 38.5H27.3332ZM44.6665 42.5C44.6665 42.8536 44.526 43.1928 44.276 43.4428C44.0259 43.6929 43.6868 43.8333 43.3332 43.8333H40.6665V38.5H43.3332C43.6868 38.5 44.0259 38.6405 44.276 38.8905C44.526 39.1406 44.6665 39.4797 44.6665 39.8333V42.5Z" fill="#FFC600"/>
</svg>
