<svg width="68" height="68" viewBox="0 0 68 68" fill="none" xmlns="http://www.w3.org/2000/svg">
<rect x="1" y="1" width="66" height="66" rx="33" fill="#FEFEFE" stroke="#AEC5CE" stroke-width="2" stroke-dasharray="2 2"/>
<path d="M43.8802 35.3332C43.5869 35.3332 43.2802 35.2398 42.9869 35.1732C42.3933 35.0405 41.8097 34.8667 41.2402 34.6532C40.6217 34.4281 39.9418 34.4398 39.3313 34.686C38.7209 34.9321 38.223 35.3954 37.9336 35.9865L37.6402 36.5998C36.3453 35.8654 35.1491 34.9694 34.0802 33.9332C33.044 32.8643 32.148 31.6681 31.4136 30.3732L32.0269 30.0932C32.6181 29.8037 33.0813 29.3059 33.3274 28.6954C33.5736 28.085 33.5853 27.4051 33.3602 26.7865C33.1485 26.2119 32.9748 25.6239 32.8402 25.0265C32.7736 24.7332 32.7202 24.4265 32.6802 24.1332C32.5183 23.194 32.0264 22.3435 31.2931 21.7348C30.5597 21.1262 29.6332 20.7993 28.6802 20.8132H24.6669C24.1032 20.8124 23.5458 20.9308 23.0311 21.1606C22.5163 21.3904 22.056 21.7264 21.6802 22.1465C21.2967 22.578 21.011 23.0875 20.843 23.6399C20.675 24.1923 20.6286 24.7745 20.7069 25.3465C21.4317 30.896 23.9672 36.0514 27.9202 40.0132C31.882 43.9662 37.0374 46.5017 42.5869 47.2265C42.76 47.2397 42.9338 47.2397 43.1069 47.2265C44.0901 47.2279 45.0394 46.8672 45.7736 46.2132C46.1937 45.8374 46.5297 45.3771 46.7595 44.8623C46.9892 44.3476 47.1076 43.7902 47.1069 43.2265V39.2265C47.0997 38.3052 46.7747 37.4147 46.1868 36.7053C45.5989 35.9959 44.7842 35.5113 43.8802 35.3332ZM44.5336 43.3332C44.5331 43.5192 44.4937 43.7031 44.418 43.8731C44.3422 44.043 44.2317 44.1952 44.0936 44.3198C43.9474 44.453 43.7735 44.552 43.5844 44.6096C43.3953 44.6673 43.1958 44.6821 43.0002 44.6532C38.0246 44.0033 33.4006 41.7358 29.8402 38.1998C26.2769 34.6365 23.9896 29.9963 23.3336 24.9998C23.3046 24.8043 23.3195 24.6047 23.3771 24.4156C23.4348 24.2265 23.5338 24.0526 23.6669 23.9065C23.7931 23.7667 23.9474 23.6552 24.1198 23.5794C24.2921 23.5035 24.4786 23.4651 24.6669 23.4665H28.6669C28.9751 23.459 29.2764 23.5585 29.5195 23.7481C29.7626 23.9377 29.9325 24.2057 30.0002 24.5065C30.0002 24.8665 30.1202 25.2398 30.2002 25.5998C30.3543 26.2983 30.5593 26.9846 30.8136 27.6532L28.9469 28.5332C28.626 28.6805 28.3767 28.949 28.2536 29.2798C28.1202 29.6045 28.1202 29.9686 28.2536 30.2932C30.1725 34.4035 33.4766 37.7076 37.5869 39.6265C37.9115 39.7599 38.2756 39.7599 38.6002 39.6265C38.9311 39.5034 39.1996 39.254 39.3469 38.9332L40.1869 37.0665C40.8748 37.3173 41.5785 37.5222 42.2936 37.6798C42.6402 37.7598 43.0136 37.8265 43.3736 37.8798C43.6743 37.9476 43.9423 38.1175 44.132 38.3606C44.3216 38.6037 44.4211 38.905 44.4136 39.2132L44.5336 43.3332ZM36.6669 20.6665C36.3602 20.6665 36.0402 20.6665 35.7336 20.6665C35.3799 20.6966 35.0527 20.8659 34.8239 21.1372C34.5952 21.4085 34.4835 21.7595 34.5136 22.1132C34.5436 22.4668 34.7129 22.794 34.9842 23.0228C35.2555 23.2516 35.6066 23.3632 35.9602 23.3332H36.6669C38.7886 23.3332 40.8235 24.176 42.3238 25.6763C43.824 27.1766 44.6669 29.2114 44.6669 31.3332C44.6669 31.5732 44.6669 31.7998 44.6669 32.0398C44.6373 32.3916 44.7485 32.7407 44.9759 33.0106C45.2034 33.2806 45.5286 33.4493 45.8802 33.4798H45.9869C46.3207 33.4812 46.6428 33.3573 46.8897 33.1327C47.1366 32.908 47.2902 32.5989 47.3202 32.2665C47.3202 31.9598 47.3202 31.6398 47.3202 31.3332C47.3202 28.5065 46.1983 25.7954 44.2008 23.7954C42.2032 21.7954 39.4936 20.67 36.6669 20.6665ZM39.3336 31.3332C39.3336 31.6868 39.474 32.0259 39.7241 32.276C39.9741 32.526 40.3133 32.6665 40.6669 32.6665C41.0205 32.6665 41.3597 32.526 41.6097 32.276C41.8598 32.0259 42.0002 31.6868 42.0002 31.3332C42.0002 29.9187 41.4383 28.5621 40.4381 27.5619C39.4379 26.5617 38.0814 25.9998 36.6669 25.9998C36.3133 25.9998 35.9741 26.1403 35.7241 26.3904C35.474 26.6404 35.3336 26.9795 35.3336 27.3332C35.3336 27.6868 35.474 28.0259 35.7241 28.276C35.9741 28.526 36.3133 28.6665 36.6669 28.6665C37.3741 28.6665 38.0524 28.9475 38.5525 29.4476C39.0526 29.9476 39.3336 30.6259 39.3336 31.3332Z" fill="#AEC5CE"/>
</svg>
