<svg width="128" height="128" viewBox="0 0 128 128" fill="none" xmlns="http://www.w3.org/2000/svg">
<rect width="128" height="128" rx="30" fill="#F4F4F8"/>
<path d="M64 90C78.3594 90 90 78.3594 90 64C90 49.6406 78.3594 38 64 38C49.6406 38 38 49.6406 38 64C38 78.3594 49.6406 90 64 90Z" stroke="#002B49" stroke-width="2.5" stroke-linecap="round" stroke-linejoin="round"/>
<path d="M64 38V90" stroke="#002B49" stroke-width="2.5" stroke-linecap="round" stroke-linejoin="round"/>
<path d="M90 64H38" stroke="#002B49" stroke-width="2.5" stroke-linecap="round" stroke-linejoin="round"/>
<path d="M64 38C64 38 77.0777 48.0437 77.0777 64C77.0777 79.9563 64 90 64 90" stroke="#002B49" stroke-width="2.5" stroke-linecap="round" stroke-linejoin="round"/>
<path d="M64.0777 38C64.0777 38 51 48.0437 51 64C51 79.9563 64.0777 90 64.0777 90" stroke="#002B49" stroke-width="2.5" stroke-linecap="round" stroke-linejoin="round"/>
<path d="M45.8 81.8901C49.837 78.3365 56.0765 74.3999 63.9081 74.3999C71.8597 74.3999 78.1699 78.458 82.2 82.053" stroke="#002B49" stroke-width="2.5" stroke-linecap="round" stroke-linejoin="round"/>
<path d="M45.8 45.963C49.837 49.5166 56.0765 53.4532 63.9081 53.4532C71.8597 53.4532 78.1699 49.3951 82.2 45.8" stroke="#002B49" stroke-width="2.5" stroke-linecap="round" stroke-linejoin="round"/>
</svg>
