<svg width="22" height="22" viewBox="0 0 22 22" fill="none" xmlns="http://www.w3.org/2000/svg">
<path d="M13.9465 7.52258L9.29901 12.1809L7.51151 10.3934C7.41439 10.28 7.29488 10.1879 7.16048 10.1229C7.02607 10.0579 6.87968 10.0213 6.73048 10.0156C6.58129 10.0098 6.43251 10.0349 6.29349 10.0894C6.15447 10.1439 6.02821 10.2265 5.92264 10.332C5.81706 10.4376 5.73445 10.5639 5.67998 10.7029C5.62552 10.8419 5.60038 10.9907 5.60614 11.1399C5.61191 11.2891 5.64845 11.4355 5.71347 11.5699C5.7785 11.7043 5.8706 11.8238 5.98401 11.9209L8.52984 14.4776C8.63107 14.578 8.75112 14.6574 8.88311 14.7113C9.0151 14.7652 9.15644 14.7926 9.29901 14.7917C9.58321 14.7906 9.85556 14.6777 10.0573 14.4776L15.474 9.06091C15.5755 8.96021 15.6561 8.84039 15.7111 8.70837C15.7661 8.57636 15.7945 8.43476 15.7945 8.29175C15.7945 8.14874 15.7661 8.00714 15.7111 7.87512C15.6561 7.74311 15.5755 7.62329 15.474 7.52258C15.271 7.32081 14.9965 7.20756 14.7103 7.20756C14.4241 7.20756 14.1495 7.32081 13.9465 7.52258ZM10.9998 0.166748C8.85721 0.166748 6.7627 0.802112 4.98116 1.99249C3.19963 3.18288 1.8111 4.87481 0.991147 6.85434C0.171198 8.83388 -0.0433383 11.0121 0.374668 13.1136C0.792675 15.215 1.82445 17.1453 3.33952 18.6604C4.85459 20.1755 6.7849 21.2073 8.88636 21.6253C10.9878 22.0433 13.166 21.8287 15.1456 21.0088C17.1251 20.1888 18.817 18.8003 20.0074 17.0188C21.1978 15.2372 21.8332 13.1427 21.8332 11.0001C21.8332 9.57743 21.553 8.1687 21.0085 6.85434C20.4641 5.53998 19.6661 4.34573 18.6602 3.33976C17.6542 2.33379 16.4599 1.53581 15.1456 0.991387C13.8312 0.446961 12.4225 0.166748 10.9998 0.166748ZM10.9998 19.6667C9.28574 19.6667 7.61013 19.1585 6.1849 18.2062C4.75967 17.2538 3.64885 15.9003 2.99289 14.3167C2.33693 12.733 2.1653 10.9905 2.4997 9.3093C2.83411 7.62813 3.65953 6.08388 4.87158 4.87182C6.08364 3.65977 7.62789 2.83435 9.30906 2.49994C10.9902 2.16554 12.7328 2.33717 14.3164 2.99313C15.9001 3.64909 17.2536 4.75991 18.2059 6.18514C19.1582 7.61037 19.6665 9.28598 19.6665 11.0001C19.6665 13.2986 18.7534 15.503 17.1281 17.1283C15.5028 18.7537 13.2984 19.6667 10.9998 19.6667Z" fill="#7f80b2"/>
</svg>
