<svg width="122" height="32" viewBox="0 0 122 32" fill="none" xmlns="http://www.w3.org/2000/svg">
<path d="M16.4994 0C7.67703 0 0.5 7.17741 0.5 15.9994C0.5 24.8218 7.67703 32 16.4994 32C25.3218 32 32.5 24.8218 32.5 15.9994C32.5 7.17741 25.3218 0 16.4994 0ZM16.4994 29.8016C8.88922 29.8016 2.69842 23.61 2.69842 15.9994C2.69842 8.38922 8.88922 2.19842 16.4994 2.19842C24.11 2.19842 30.3016 8.38922 30.3016 15.9994C30.3016 23.61 24.11 29.8016 16.4994 29.8016Z" fill="#AEC5CE"/>
<path d="M22.2461 9.259L8.64064 14.8188C8.64064 14.8188 7.99739 15.0484 8.04718 15.4718C8.09831 15.896 8.62321 16.09 8.62321 16.09L12.0466 17.29C12.0466 17.29 13.08 20.8195 13.2833 21.4911C13.4867 22.1609 13.6499 22.1767 13.6499 22.1767C13.8393 22.2624 14.0114 22.1259 14.0114 22.1259L16.2232 20.0259L19.6704 22.7789C20.6028 23.2025 20.9421 22.3199 20.9421 22.3199L23.3644 9.59499C23.3644 8.74739 22.2461 9.259 22.2461 9.259ZM19.8374 21.2965L16.1495 18.3521L15.0051 19.4383L15.2567 17.1273L20.1725 12.553L13.4718 16.4589L10.4995 15.4173L21.8395 10.7829L19.8374 21.2965Z" fill="#AEC5CE"/>
<path d="M51.476 10.632V12.2H48.052V21H46.228V12.2H42.756V10.632H51.476ZM54.7904 19.48H59.7344V21H52.9664V10.632H59.6544V12.136H54.7904V14.984H59.0144L58.8064 16.456H54.7904V19.48ZM63.5404 19.416H68.4684V21H61.7164V10.632H63.5404V19.416ZM71.7748 19.48H76.7188V21H69.9508V10.632H76.6388V12.136H71.7748V14.984H75.9988L75.7908 16.456H71.7748V19.48ZM86.9091 15.16V20.264C86.2371 20.5947 85.6078 20.8347 85.0211 20.984C84.4345 21.1333 83.7945 21.208 83.1011 21.208C81.9385 21.208 80.9891 20.9787 80.2531 20.52C79.5171 20.0613 78.9785 19.4373 78.6371 18.648C78.2958 17.848 78.1251 16.9147 78.1251 15.848C78.1251 14.6 78.3491 13.5707 78.7971 12.76C79.2558 11.9493 79.8638 11.3573 80.6211 10.984C81.3785 10.6107 82.2265 10.424 83.1651 10.424C84.4771 10.424 85.6398 10.744 86.6531 11.384L85.8851 12.728C85.0851 12.216 84.2211 11.96 83.2931 11.96C82.1731 11.96 81.3465 12.296 80.8131 12.968C80.2905 13.64 80.0291 14.5733 80.0291 15.768C80.0291 17.0373 80.2745 18.0027 80.7651 18.664C81.2665 19.3147 82.0718 19.64 83.1811 19.64C83.8318 19.64 84.4665 19.528 85.0851 19.304V16.664H82.6211L82.8291 15.16H86.9091ZM96.9336 20.888V21H94.8696L92.0696 17.08H90.8216V21H88.9976V10.632H92.4216C93.275 10.632 93.9896 10.7653 94.5656 11.032C95.1523 11.2987 95.5896 11.6667 95.8776 12.136C96.1763 12.6053 96.3256 13.1493 96.3256 13.768C96.3256 14.504 96.123 15.1493 95.7176 15.704C95.323 16.248 94.7416 16.632 93.9736 16.856L96.9336 20.888ZM90.8216 15.64H92.1976C92.923 15.64 93.4776 15.4907 93.8616 15.192C94.2456 14.8827 94.4376 14.4293 94.4376 13.832C94.4376 13.2773 94.2616 12.856 93.9096 12.568C93.5683 12.28 93.067 12.136 92.4056 12.136H90.8216V15.64ZM103.507 10.632L107.331 20.888V21H105.411L104.435 18.248H100.275L99.3151 21H97.4431V20.888L101.251 10.632H103.507ZM100.787 16.776H103.907L102.339 12.328L100.787 16.776ZM119.642 10.632V21H117.85V13.72C117.669 14.2 117.45 14.6907 117.194 15.192L115.002 19.496H113.434L111.274 15.192C110.933 14.5307 110.698 14.0293 110.57 13.688V21H108.81V10.632H110.778L113.13 15.192C113.674 16.2693 114.042 17.096 114.234 17.672C114.437 17.0427 114.805 16.216 115.338 15.192L117.706 10.632H119.642Z" fill="#AEC5CE"/>
</svg>
