<svg width="108" height="32" viewBox="0 0 108 32" fill="none" xmlns="http://www.w3.org/2000/svg">
<path d="M23.2218 10.8771C22.6821 11.1961 22.0858 11.4286 21.4504 11.5542C20.9414 11.0127 20.2156 10.6733 19.4151 10.6733C17.8746 10.6733 16.6264 11.9216 16.6264 13.462C16.6264 13.6803 16.6506 13.8936 16.6981 14.0966C14.3809 13.9813 12.3261 12.871 10.9499 11.1835C10.7094 11.5956 10.5723 12.0751 10.5723 12.5861C10.5723 13.5528 11.0644 14.4069 11.8136 14.9071C11.3559 14.8929 10.9266 14.7669 10.5505 14.5578C10.5497 14.5693 10.5497 14.5819 10.5497 14.5938C10.5497 15.9442 11.5103 17.0722 12.7876 17.3277C12.5524 17.392 12.3069 17.4265 12.0522 17.4265C11.873 17.4265 11.6983 17.4085 11.5283 17.3763C11.8833 18.4836 12.9121 19.2902 14.1327 19.3124C13.1786 20.0608 11.9764 20.5066 10.6688 20.5066C10.444 20.5066 10.2222 20.4939 10.0039 20.4671C11.2379 21.258 12.7045 21.7203 14.2794 21.7203C19.4093 21.7203 22.2141 17.4705 22.2141 13.7856C22.2141 13.665 22.211 13.5443 22.206 13.4245C22.7507 13.0315 23.2233 12.5405 23.5971 11.9813C23.0969 12.2027 22.5595 12.352 21.9954 12.4195C22.571 12.0751 23.0134 11.5274 23.2218 10.8771Z" fill="#AEC5CE"/>
<path d="M16.5001 0C7.67764 0 0.499756 7.17712 0.499756 15.9996C0.499756 24.8221 7.67764 32 16.5001 32C25.3226 32 32.5005 24.8221 32.5005 15.9996C32.5005 7.17712 25.3226 0 16.5001 0ZM16.5001 29.8016C8.88985 29.8016 2.6982 23.6099 2.6982 15.9996C2.6982 8.38932 8.88985 2.19806 16.5001 2.19806C24.1104 2.19806 30.3021 8.38932 30.3021 15.9996C30.3021 23.6099 24.1104 29.8016 16.5001 29.8016Z" fill="#AEC5CE"/>
<path d="M51.4765 10.632V12.2H48.0525V21H46.2285V12.2H42.7565V10.632H51.4765ZM66.1509 10.632V10.744L63.3669 21H61.1429L59.5909 14.936C59.3989 14.136 59.2335 13.2827 59.0949 12.376C58.9562 13.2827 58.7909 14.136 58.5989 14.936L57.1109 21H54.8709L52.0389 10.744V10.632H53.8949L55.4789 16.76C55.5642 17.0587 55.6549 17.448 55.7509 17.928C55.8575 18.3973 55.9482 18.856 56.0229 19.304C56.1829 18.216 56.3429 17.368 56.5029 16.76L58.1029 10.632H60.1989L61.7989 16.712C61.9802 17.3947 62.1562 18.264 62.3269 19.32C62.4762 18.456 62.6522 17.5867 62.8549 16.712L64.3429 10.632H66.1509ZM67.6856 21V10.632H69.5096V21H67.6856ZM79.7265 10.632V12.2H76.3025V21H74.4785V12.2H71.0065V10.632H79.7265ZM88.9609 10.632V12.2H85.5369V21H83.7129V12.2H80.2409V10.632H88.9609ZM92.2752 19.48H97.2192V21H90.4512V10.632H97.1392V12.136H92.2752V14.984H96.4992L96.2912 16.456H92.2752V19.48ZM107.137 20.888V21H105.073L102.273 17.08H101.025V21H99.2012V10.632H102.625C103.479 10.632 104.193 10.7653 104.769 11.032C105.356 11.2987 105.793 11.6667 106.081 12.136C106.38 12.6053 106.529 13.1493 106.529 13.768C106.529 14.504 106.327 15.1493 105.921 15.704C105.527 16.248 104.945 16.632 104.177 16.856L107.137 20.888ZM101.025 15.64H102.401C103.127 15.64 103.681 15.4907 104.065 15.192C104.449 14.8827 104.641 14.4293 104.641 13.832C104.641 13.2773 104.465 12.856 104.113 12.568C103.772 12.28 103.271 12.136 102.609 12.136H101.025V15.64Z" fill="#AEC5CE"/>
</svg>
