<svg width="112" height="32" viewBox="0 0 112 32" fill="none" xmlns="http://www.w3.org/2000/svg">
<path d="M21.1235 11.3447C17.8105 11.085 14.1896 11.085 10.8781 11.3447C9.84211 11.4711 9.06117 12.1681 8.86124 13.1938C8.62646 14.9855 8.62646 17.0143 8.86047 18.8056C9.06079 19.8313 9.84211 20.528 10.8781 20.6547C14.1896 20.9148 17.8105 20.9144 21.1235 20.6547C22.158 20.5272 22.9382 19.8324 23.1396 18.8056C23.3729 17.0131 23.3729 14.9859 23.1396 13.1938C22.9382 12.1674 22.158 11.4726 21.1235 11.3447ZM15.0104 17.9725V14.0272L18.5218 15.9997L15.0104 17.9725Z" fill="#AEC5CE"/>
<path d="M16 0C7.1775 0 0 7.1775 0 15.9996C0 24.8221 7.1775 32 16 32C24.8225 32 32 24.8221 32 15.9996C32 7.1775 24.8225 0 16 0ZM16 29.8016C8.38932 29.8016 2.19844 23.6099 2.19844 15.9996C2.19844 8.38932 8.38932 2.19844 16 2.19844C23.6099 2.19844 29.8016 8.38932 29.8016 15.9996C29.8016 23.6099 23.6099 29.8016 16 29.8016Z" fill="#AEC5CE"/>
<path d="M51.6 10.632V10.744L47.792 16.84V21H45.968V16.824L42.24 10.744V10.632H44.272L46.912 15.176L49.664 10.632H51.6ZM56.773 21.208C55.7063 21.208 54.7997 20.984 54.053 20.536C53.3063 20.0773 52.741 19.4427 52.357 18.632C51.9837 17.8107 51.797 16.8613 51.797 15.784C51.797 14.5893 52.0263 13.592 52.485 12.792C52.9437 11.9813 53.557 11.384 54.325 11C55.093 10.616 55.9463 10.424 56.885 10.424C57.9517 10.424 58.8583 10.6533 59.605 11.112C60.3517 11.56 60.9117 12.1947 61.285 13.016C61.6583 13.8267 61.845 14.7707 61.845 15.848C61.845 17.0427 61.6157 18.0453 61.157 18.856C60.6983 19.656 60.085 20.248 59.317 20.632C58.5597 21.016 57.7117 21.208 56.773 21.208ZM56.773 19.688C57.4663 19.688 58.053 19.528 58.533 19.208C59.013 18.888 59.3703 18.4453 59.605 17.88C59.8397 17.304 59.957 16.632 59.957 15.864C59.957 15.0747 59.845 14.3867 59.621 13.8C59.397 13.2133 59.0557 12.76 58.597 12.44C58.1383 12.1093 57.5677 11.944 56.885 11.944C56.181 11.944 55.589 12.104 55.109 12.424C54.629 12.744 54.2717 13.192 54.037 13.768C53.8023 14.3333 53.685 15 53.685 15.768C53.685 16.9733 53.9463 17.928 54.469 18.632C54.9917 19.336 55.7597 19.688 56.773 19.688ZM67.8916 21.208C66.8996 21.208 66.073 21.016 65.4116 20.632C64.761 20.248 64.281 19.7307 63.9716 19.08C63.6623 18.4187 63.5076 17.6667 63.5076 16.824V10.632H65.3316V16.52C65.3316 17.512 65.5396 18.2853 65.9556 18.84C66.3716 19.384 67.0543 19.656 68.0036 19.656C69.721 19.656 70.5796 18.6533 70.5796 16.648V10.632H72.4036V16.776C72.4036 17.8107 72.2063 18.6587 71.8116 19.32C71.417 19.9707 70.8836 20.4507 70.2116 20.76C69.5396 21.0587 68.7663 21.208 67.8916 21.208ZM82.3666 10.632V12.2H78.9426V21H77.1186V12.2H73.6466V10.632H82.3666ZM88.001 21.208C87.009 21.208 86.1823 21.016 85.521 20.632C84.8703 20.248 84.3903 19.7307 84.081 19.08C83.7717 18.4187 83.617 17.6667 83.617 16.824V10.632H85.441V16.52C85.441 17.512 85.649 18.2853 86.065 18.84C86.481 19.384 87.1637 19.656 88.113 19.656C89.8303 19.656 90.689 18.6533 90.689 16.648V10.632H92.513V16.776C92.513 17.8107 92.3157 18.6587 91.921 19.32C91.5263 19.9707 90.993 20.4507 90.321 20.76C89.649 21.0587 88.8757 21.208 88.001 21.208ZM100.364 15.544C100.844 15.6613 101.239 15.8533 101.548 16.12C101.868 16.376 102.097 16.6693 102.236 17C102.385 17.3307 102.46 17.6773 102.46 18.04C102.46 18.6373 102.311 19.16 102.012 19.608C101.724 20.0453 101.292 20.3867 100.716 20.632C100.14 20.8773 99.4413 21 98.62 21H94.732V10.632H98.428C99.196 10.632 99.852 10.7493 100.396 10.984C100.94 11.208 101.351 11.5227 101.628 11.928C101.916 12.3333 102.06 12.8027 102.06 13.336C102.06 13.8267 101.921 14.2693 101.644 14.664C101.367 15.048 100.94 15.3413 100.364 15.544ZM96.556 12.104V14.984H98.204C98.8013 14.984 99.2813 14.8667 99.644 14.632C100.017 14.3973 100.204 14.0133 100.204 13.48C100.204 13.064 100.049 12.7333 99.74 12.488C99.4307 12.232 98.9933 12.104 98.428 12.104H96.556ZM98.556 19.512C99.2707 19.512 99.7827 19.368 100.092 19.08C100.412 18.792 100.572 18.424 100.572 17.976C100.572 17.496 100.407 17.1173 100.076 16.84C99.7453 16.552 99.2493 16.408 98.588 16.408H96.556V19.512H98.556ZM106.181 19.48H111.125V21H104.357V10.632H111.045V12.136H106.181V14.984H110.405L110.197 16.456H106.181V19.48Z" fill="#AEC5CE"/>
</svg>
